<svg width="43" height="42" viewBox="0 0 43 42" fill="none" xmlns="http://www.w3.org/2000/svg">
<path d="M21.1329 0C9.57531 0 0.23291 9.3424 0.23291 20.9C0.23291 32.4576 9.57531 41.8 21.1329 41.8C32.6905 41.8 42.0329 32.4576 42.0329 20.9C42.0329 9.3424 32.6905 0 21.1329 0ZM18.2435 29.7608L16.7025 34.2876C10.9237 32.3613 7.07116 26.8714 7.07116 20.7074C7.07116 14.5433 10.9237 9.14977 16.7988 7.12719L18.3398 11.6539C14.4873 12.906 11.9831 16.5659 11.9831 20.6111C11.7905 24.8488 14.391 28.5088 18.2435 29.7608ZM25.3707 34.3839L23.926 29.7608C27.8748 28.5088 30.4753 24.8488 30.4753 20.7074C30.4753 16.5659 27.8748 13.0023 24.0223 11.7502L25.5633 7.12719C31.4384 9.05346 35.3873 14.5433 35.3873 20.7074C35.3873 27.0641 31.3421 32.5539 25.3707 34.3839Z" fill="#00BEF0"/>
</svg>
